<svg width="305" height="192" viewBox="0 0 305 192" fill="none" xmlns="http://www.w3.org/2000/svg">
<path fill-rule="evenodd" clip-rule="evenodd" d="M87.6081 36.0889C86.9714 36.1229 86.1804 36.1953 85.8503 36.2498C85.5202 36.3043 84.9993 36.3891 84.6928 36.4381C83.3053 36.6603 81.0898 37.2855 79.614 37.8712C78.8267 38.1836 77.2576 38.9584 76.4184 39.4491C75.851 39.7808 74.4961 40.6775 74.4034 40.7827C74.3798 40.8093 74.2062 40.9442 74.0175 41.0821C73.0729 41.7733 71.4296 43.3168 70.3706 44.5078C68.9258 46.1327 67.3094 48.5831 66.1703 50.8756C65.8754 51.4691 65.765 51.7048 65.2296 52.8846C64.6156 54.2379 63.7091 56.8612 62.9697 59.4247C62.5599 60.8458 61.8098 64.0756 61.5403 65.5801C61.4855 65.8858 61.3889 66.4051 61.3257 66.7343C61.2625 67.0634 61.1668 67.6405 61.1131 68.0166C61.0594 68.3928 60.9622 69.0468 60.8973 69.47C60.8324 69.8932 60.7397 70.5857 60.6912 71.0089C60.6428 71.432 60.5462 72.2784 60.4767 72.8897C60.1969 75.3489 59.9976 79.1754 60 82.04C60.0024 84.82 60.2417 88.784 60.5123 90.5262C60.5612 90.8415 60.6424 91.3687 60.6927 91.6979C60.7429 92.027 60.8353 92.5464 60.8981 92.852C60.9609 93.1576 61.0586 93.6385 61.1152 93.9206C61.1718 94.2028 61.2677 94.6067 61.3282 94.8183C61.3887 95.0299 61.4851 95.3954 61.5425 95.6305C61.7171 96.3468 62.5779 98.8722 62.6833 98.9773C62.7156 99.0095 62.7421 99.0849 62.7421 99.145C62.7421 99.5948 64.9367 103.455 65.4831 103.966C65.5082 103.989 65.6815 104.201 65.8681 104.436C66.4017 105.109 67.4486 106.164 68.0582 106.645C68.3648 106.886 68.6735 107.14 68.7442 107.208C69.2139 107.659 71.1269 108.737 72.3884 109.261C74.0347 109.946 75.1467 110.244 77.5331 110.641C78.3247 110.773 93.8095 110.871 115.705 110.882C131.524 110.89 132.358 110.883 132.403 110.74C132.43 110.658 132.491 110.129 132.539 109.565C132.742 107.217 132.789 106.708 132.871 105.975C132.919 105.552 132.998 104.782 133.047 104.265C133.135 103.335 133.282 101.844 133.525 99.4349C133.593 98.7531 133.69 97.7528 133.741 97.2121C133.829 96.2599 133.999 94.5817 134.17 92.9638C134.216 92.5317 134.253 91.9985 134.253 91.7791V91.3801L110.18 91.4013C92.2373 91.4171 85.9882 91.3974 85.639 91.3238C84.5658 91.0977 83.7342 90.4213 83.2084 89.3468C82.5939 88.091 82.3798 86.73 82.3151 83.6691L82.2682 81.4536L104.124 81.5318C116.144 81.5747 128.063 81.6098 130.609 81.6098H135.239L135.298 81.1396C135.408 80.2455 135.621 78.3577 135.713 77.4635C135.763 76.9698 135.859 76.0849 135.926 75.4972C135.993 74.9094 136.09 74.0053 136.141 73.4881C136.192 72.9709 136.288 72.0476 136.354 71.4363C136.421 70.8251 136.514 69.9402 136.561 69.47C136.738 67.7112 136.919 65.9304 137.032 64.8535C137.095 64.2422 137.131 63.7133 137.11 63.6779C137.09 63.6426 125.12 63.6138 110.511 63.6138C95.9024 63.6138 83.9283 63.5925 83.9022 63.5665C83.8761 63.5406 83.9101 63.3386 83.9776 63.1177C84.0918 62.7439 84.366 61.7701 84.524 61.1773C84.5616 61.0362 84.6525 60.7092 84.7262 60.4506C84.7999 60.192 84.9406 59.6534 85.0388 59.2537C85.4907 57.4166 85.8388 56.5554 86.3884 55.9153C86.7433 55.5019 87.6307 54.9691 88.3798 54.7196C89.8378 54.234 88.3997 54.2622 114.226 54.2126L137.971 54.167L138.038 53.9162C138.075 53.7782 138.128 53.3358 138.157 52.933C138.185 52.5303 138.262 51.7006 138.327 51.0893C138.393 50.478 138.489 49.5162 138.541 48.952C138.593 48.3878 138.69 47.4067 138.757 46.772C138.903 45.3753 139.102 43.2768 139.23 41.7707C139.282 41.1594 139.39 40.1663 139.471 39.5637L139.617 38.4681L140.029 39.4782C140.256 40.0338 140.473 40.5653 140.512 40.6593C140.55 40.7533 140.745 41.2342 140.944 41.7279C141.143 42.2217 141.338 42.7026 141.378 42.7966C141.418 42.8906 141.609 43.3715 141.802 43.8652C141.995 44.359 142.281 45.0707 142.437 45.4468C142.594 45.823 142.903 46.5924 143.124 47.1567C143.845 48.9949 145.349 52.7729 145.574 53.3121C145.613 53.4061 145.902 54.1371 146.215 54.9364C146.529 55.7358 146.82 56.4667 146.861 56.5608C146.902 56.6548 147.193 57.3858 147.507 58.1851C147.821 58.9844 148.628 61.0234 149.301 62.7162C149.974 64.4089 150.782 66.4479 151.096 67.2472C151.41 68.0466 151.701 68.7775 151.743 68.8716C151.785 68.9656 152.075 69.6966 152.388 70.4959C152.7 71.2953 152.99 72.0262 153.032 72.1203C153.074 72.2143 153.324 72.8491 153.587 73.5309C153.851 74.2127 154.1 74.8474 154.141 74.9415C154.182 75.0355 154.312 75.3625 154.431 75.6682C154.788 76.5842 155.18 77.5806 155.255 77.7627C155.295 77.8567 155.431 78.203 155.559 78.5321C155.687 78.8613 155.825 79.2075 155.864 79.3016C155.904 79.3956 156.252 80.242 156.636 81.1824C157.319 82.8516 157.51 83.3132 157.662 83.6616C157.756 83.8779 158.892 86.7524 159.419 88.1072C159.638 88.6714 159.992 89.5755 160.205 90.1163C160.418 90.657 160.691 91.3495 160.811 91.6551C160.93 91.9607 161.077 92.3262 161.137 92.4673C161.197 92.6083 161.542 93.4739 161.905 94.3908C162.508 95.9138 163.859 99.3184 164.704 101.444C164.891 101.914 165.078 102.376 165.119 102.47C165.159 102.564 165.409 103.168 165.672 103.811C166.608 106.095 167.428 107.414 168.63 108.57C170.205 110.086 172.531 111.227 174.939 111.666C175.662 111.798 177.818 112 178.498 112C179.214 112 181.455 111.799 182.185 111.67C184.645 111.234 187.047 110.2 188.83 108.81C189.957 107.932 191.8 105.893 192.358 104.908C192.445 104.754 192.556 104.565 192.603 104.489C193.033 103.794 193.68 102.708 194.212 101.786C194.565 101.175 195.187 100.102 195.593 99.4026C196 98.7031 196.333 98.1213 196.333 98.1096C196.333 98.098 196.583 97.6557 196.89 97.1266C197.197 96.5975 197.447 96.1533 197.447 96.1394C197.447 96.1255 197.644 95.7745 197.885 95.3594C198.126 94.9442 198.419 94.4314 198.538 94.2199C198.877 93.6126 199.058 93.2991 200.54 90.7574C201.943 88.3518 202.32 87.6999 202.763 86.9103C202.896 86.6752 203.27 86.0212 203.595 85.457C203.921 84.8927 204.215 84.3734 204.25 84.3028C204.285 84.2323 204.361 84.0976 204.418 84.0036C204.475 83.9096 204.695 83.5248 204.907 83.1487C205.119 82.7725 205.339 82.3878 205.396 82.2938C205.454 82.1997 205.528 82.068 205.562 82.001C205.623 81.8799 206.299 80.7105 207.817 78.1047C208.255 77.3523 209.175 75.7558 209.861 74.5568C210.547 73.3577 211.177 72.2613 211.261 72.1203C211.346 71.9792 211.467 71.7674 211.531 71.6497C211.792 71.1684 213.658 67.9199 214.453 66.5633C214.921 65.7639 215.402 64.9372 215.522 64.7259C215.642 64.5147 215.862 64.1492 216.011 63.9137C216.16 63.6783 216.308 63.4279 216.34 63.3573C216.372 63.2868 216.469 63.1137 216.555 62.9726C216.641 62.8316 216.838 62.4902 216.992 62.214C217.146 61.9378 217.388 61.5146 217.532 61.2736C217.675 61.0326 217.904 60.6305 218.04 60.3801C218.246 60.0015 218.788 59.0553 219.796 57.3113C219.884 57.1598 220.592 55.9323 221.37 54.5835C222.148 53.2348 222.89 51.9545 223.019 51.7385C223.148 51.5225 223.293 51.2688 223.341 51.1748C223.389 51.0807 223.466 50.9461 223.513 50.8756C223.627 50.7034 224.578 49.0711 224.658 48.9093C224.692 48.8387 224.768 48.7041 224.825 48.61C224.882 48.516 225.311 47.7658 225.779 46.9429C226.522 45.6366 227.249 44.3794 228.818 41.6869C229.037 41.3118 229.254 40.9398 229.302 40.8604C229.349 40.781 229.448 40.6071 229.521 40.474C229.971 39.6629 230.251 39.1747 230.396 38.9495L230.561 38.693L230.508 39.1204C230.478 39.3555 230.434 39.7787 230.41 40.0609C230.386 40.343 230.312 41.0739 230.245 41.6852C230.178 42.2965 230.082 43.2582 230.03 43.8225C229.979 44.3867 229.883 45.3485 229.816 45.9598C229.75 46.5711 229.653 47.5521 229.6 48.1398C229.548 48.7276 229.452 49.6894 229.386 50.2771C229.321 50.8649 229.225 51.8074 229.174 52.3717C229.123 52.9359 229.023 53.9554 228.951 54.6372C228.88 55.319 228.767 56.3962 228.7 57.031C228.634 57.6657 228.538 58.6275 228.487 59.1683C228.436 59.709 228.34 60.6708 228.273 61.3055C228.205 61.9403 228.109 62.9021 228.058 63.4428C228.007 63.9836 227.912 64.9454 227.845 65.5801C227.779 66.2149 227.682 67.1959 227.63 67.7602C227.577 68.3244 227.481 69.2862 227.415 69.8975C227.349 70.5087 227.253 71.4513 227.202 71.992C227.151 72.5327 227.053 73.5234 226.984 74.1934C226.914 74.8634 226.801 75.9599 226.732 76.6299C226.663 77.2999 226.565 78.2906 226.513 78.8313C226.462 79.3721 226.367 80.3146 226.301 80.9259C226.235 81.5372 226.139 82.4989 226.087 83.0632C226.035 83.6274 225.939 84.5892 225.873 85.2005C225.806 85.8117 225.71 86.7735 225.659 87.3378C225.607 87.902 225.507 88.9215 225.436 89.6033C225.364 90.2851 225.251 91.3623 225.185 91.9971C225.118 92.6319 225.022 93.5936 224.971 94.1344C224.921 94.6751 224.824 95.6369 224.757 96.2717C224.69 96.9064 224.593 97.8682 224.543 98.409C224.492 98.9497 224.396 99.9115 224.33 100.546C224.263 101.181 224.166 102.162 224.114 102.726C224.062 103.291 223.965 104.252 223.899 104.864C223.833 105.475 223.737 106.437 223.686 107.001C223.635 107.565 223.537 108.494 223.468 109.064C223.399 109.635 223.342 110.27 223.342 110.475V110.848L234.507 110.825C242.083 110.809 245.689 110.773 245.726 110.713C245.777 110.63 245.869 109.837 246.072 107.728C246.119 107.234 246.212 106.311 246.278 105.676C246.345 105.041 246.441 104.06 246.493 103.496C246.546 102.931 246.643 101.95 246.709 101.316C246.776 100.681 246.871 99.7191 246.922 99.1784C246.973 98.6376 247.069 97.6759 247.135 97.0411C247.202 96.4063 247.299 95.4253 247.351 94.861C247.403 94.2968 247.5 93.3158 247.566 92.681C247.633 92.0462 247.749 90.9113 247.826 90.159C248.032 88.1196 248.104 87.542 248.155 87.4905C248.181 87.465 252.613 87.4241 258.005 87.3998L267.808 87.3555L267.937 87.5603C268.009 87.6731 268.332 88.4 268.656 89.1758C268.98 89.9517 269.357 90.8343 269.494 91.1372C269.631 91.4401 269.996 92.2865 270.304 93.018C270.613 93.7496 270.938 94.5116 271.027 94.7114C271.435 95.6309 271.549 95.8964 272.162 97.3579C272.522 98.2139 272.909 99.118 273.022 99.367C273.136 99.6159 273.43 100.3 273.675 100.886C273.92 101.473 274.194 102.118 274.284 102.318C274.373 102.519 274.522 102.852 274.614 103.059C274.706 103.265 275.028 104.025 275.331 104.747C275.633 105.469 275.967 106.253 276.074 106.488C276.416 107.245 276.563 107.585 276.879 108.348C277.05 108.759 277.267 109.269 277.361 109.481C277.456 109.692 277.614 110.046 277.714 110.268C277.813 110.49 277.928 110.759 277.969 110.867L278.043 111.062H290.521C297.384 111.062 302.999 111.032 302.999 110.996C302.999 110.918 301.827 108.126 301.294 106.938C301.195 106.715 301.113 106.514 301.113 106.491C301.113 106.469 301.02 106.247 300.906 105.999C300.793 105.751 300.137 104.208 299.45 102.571C298.763 100.934 298.146 99.4719 298.08 99.3223C298.014 99.1726 297.883 98.877 297.789 98.6654C297.696 98.4538 297.532 98.0691 297.426 97.8105C297.32 97.5519 297.166 97.1864 297.083 96.9983C297 96.8103 296.441 95.483 295.84 94.0489C295.24 92.6148 294.675 91.2778 294.587 91.078C294.498 90.8782 294.348 90.542 294.253 90.3309C294.159 90.1198 294.082 89.9271 294.082 89.9025C294.082 89.878 294 89.6756 293.9 89.4528C293.312 88.1402 292.624 86.4888 292.627 86.3975C292.628 86.3504 293.007 86.0162 293.468 85.6548C295.713 83.8961 298.494 80.8888 300.055 78.5321C300.835 77.3553 301.975 75.2214 302.477 74.0011C302.516 73.907 302.591 73.7339 302.644 73.6164C302.793 73.2885 303.381 71.655 303.506 71.2226C303.567 71.011 303.648 70.7576 303.686 70.6595C303.855 70.221 304.494 67.4338 304.625 66.5633C304.984 64.1921 305 63.9767 305 61.4765C305.001 58.9862 304.967 58.5341 304.621 56.347C304.016 52.5264 302.433 48.3512 300.439 45.3186C297.534 40.8987 293.742 38.0185 289.109 36.7114C288.522 36.5458 288.214 36.479 286.922 36.2361L285.893 36.0427H246.457H207.02L206.794 36.4275C206.67 36.6391 206.425 37.0722 206.25 37.3901C206.075 37.708 205.759 38.2594 205.548 38.6154C205.337 38.9715 205.164 39.2768 205.164 39.2939C205.164 39.311 204.914 39.7552 204.607 40.2811C204.3 40.8069 204.05 41.25 204.05 41.2658C204.05 41.2815 203.832 41.6709 203.565 42.131C203.063 42.9972 202.97 43.1604 202.529 43.9507C202.385 44.2093 202.07 44.7606 201.829 45.1757C201.589 45.5909 201.392 45.9435 201.392 45.9594C201.392 45.9753 201.225 46.2705 201.021 46.6153C200.817 46.96 200.533 47.4538 200.391 47.7124C200.003 48.4139 198.645 50.8112 198.144 51.6786C197.902 52.0968 197.705 52.4478 197.705 52.4586C197.705 52.4695 197.454 52.9112 197.147 53.4403C196.841 53.9694 196.59 54.4118 196.59 54.4235C196.59 54.4351 196.339 54.8775 196.033 55.4066C195.726 55.9357 195.475 56.3775 195.475 56.3883C195.475 56.3991 195.288 56.7329 195.058 57.13C194.829 57.5272 194.524 58.0617 194.381 58.3178C194.149 58.7329 193.225 60.3679 190.737 64.768C190.311 65.5203 189.867 66.309 189.749 66.5205C189.564 66.851 188.929 67.9571 188.658 68.4173C188.611 68.4976 188.462 68.7673 188.326 69.0167C188.191 69.266 187.822 69.9124 187.506 70.4532C187.19 70.9939 186.551 72.1096 186.086 72.9324C185.621 73.7553 185.035 74.7857 184.784 75.2223C184.533 75.6589 184.328 76.0291 184.328 76.0448C184.328 76.0606 184.085 76.492 183.787 77.0035C183.49 77.5151 183.218 77.9914 183.184 78.0619C183.149 78.1325 183.074 78.2671 183.017 78.3611C182.96 78.4552 182.746 78.8302 182.543 79.1947C182.339 79.5591 182.143 79.8573 182.107 79.8573C182.018 79.8573 181.796 79.3408 181.043 77.378C180.926 77.0724 180.579 76.1875 180.272 75.4117C179.965 74.6358 179.541 73.5586 179.328 73.0179C179.116 72.4772 178.685 71.3807 178.37 70.5814C177.667 68.7993 177.191 67.5885 176.471 65.7511C176.167 64.9753 175.825 64.1097 175.713 63.8276C175.381 62.9997 174.422 60.5608 174.081 59.6812C173.909 59.2345 173.6 58.4459 173.396 57.9286C172.379 55.3486 171.566 53.2824 170.555 50.7046C170.25 49.9287 169.909 49.0631 169.796 48.781C169.683 48.4989 169.295 47.5179 168.935 46.601C168.574 45.6841 168.151 44.6069 167.993 44.2072C167.836 43.8075 167.375 42.6342 166.969 41.5997C166.563 40.5653 166.198 39.6419 166.157 39.5479C166.118 39.4539 165.979 39.1076 165.851 38.7785C165.722 38.4493 165.56 38.0454 165.492 37.8808C165.255 37.3122 165.148 37.0415 164.862 36.2778L164.758 36L126.762 36.0135C105.864 36.0209 88.2447 36.0548 87.6081 36.0889ZM280.834 54.8833C282.368 55.3234 283.289 55.8328 284.049 56.6607C285.068 57.7706 285.507 59.4518 285.247 61.2464C285.053 62.5839 284.822 63.3674 284.353 64.2825C283.425 66.0928 281.68 67.2512 279.419 67.5574C278.786 67.6432 253.205 67.6602 251.531 67.5759L250.439 67.5209L250.486 66.7857C250.512 66.3812 250.587 65.5694 250.652 64.9817C250.716 64.3939 250.813 63.4322 250.866 62.8444C250.919 62.2566 251.016 61.2949 251.082 60.7071C251.147 60.1194 251.244 59.1768 251.296 58.6126C251.349 58.0483 251.447 57.1163 251.515 56.5414C251.583 55.9665 251.638 55.3286 251.638 55.1236C251.638 54.9188 251.664 54.7255 251.695 54.6942C251.727 54.6628 258.103 54.6372 265.865 54.6372H279.977L280.834 54.8833Z" fill="url(#paint0_linear_214_646)"/>
<path d="M30.64 157.56H23.76V154.44H21.2V172.44H24V179H7.2V172.44H10V154.44H7.44V157.56H0.56V147.88H30.64V157.56ZM60.9569 172.44H62.5569V179H46.8769V172.44H49.2769L48.6369 169.24H43.1969L42.5569 172.44H44.9569V179H31.2769V172.44H32.8769L39.6369 147.88H54.1969L60.9569 172.44ZM44.0769 165H47.7569L46.1169 157.04H45.7169L44.0769 165ZM96.7834 172.44H98.4634V179H83.3434V172.44H84.9834L82.6634 169.16H82.2634L79.9434 172.44H81.5834V179H67.5834V172.44H69.6634L77.3434 163.8L69.3434 154.44H67.6634V147.88H82.6634V154.44H81.1434L83.3434 157.72H83.7434L85.9434 154.44H84.4234V147.88H98.3034V154.44H96.2234L88.6634 162.96L96.7834 172.44ZM103.816 179V172.44H105.816V154.44H103.816V147.88H119.016V154.44H117.016V172.44H119.016V179H103.816Z" fill="#059669"/>
<rect x="105" y="131" width="12" height="12" fill="url(#paint1_linear_214_646)"/>
<path fill-rule="evenodd" clip-rule="evenodd" d="M10.275 0.0820969C10.3687 0.307025 10.5239 0.718898 10.6142 0.982123C10.6684 1.13995 10.7856 1.46866 10.8747 1.71258C10.9638 1.9565 11.0561 2.21477 11.0798 2.28651C11.1036 2.35825 11.2917 2.87479 11.4979 3.43437C11.704 3.99395 11.9314 4.61614 12.0032 4.81702C12.075 5.01789 12.1654 5.26442 12.2042 5.36486C12.2429 5.4653 12.3329 5.71183 12.4042 5.9127C12.5693 6.37806 12.9457 7.41583 13.0462 7.68265C13.1017 7.82999 13.1134 7.97979 13.088 8.21745C13.0672 8.41107 13.0726 8.54756 13.101 8.54756C13.1276 8.54756 13.1968 8.5917 13.2546 8.6456C13.3125 8.69955 13.4609 8.81105 13.5844 8.89343C13.8464 9.06817 13.7811 9.02236 14.9171 9.82821C15.4044 10.1738 15.8532 10.4908 15.9145 10.5326C16.4256 10.8808 17.3417 11.5473 17.3417 11.5709C17.3417 11.587 17.1685 12.011 16.9568 12.5131C16.5411 13.4988 16.5434 13.4726 16.8552 13.6489C17.094 13.784 18.6803 14.7149 18.8758 14.8347C18.9695 14.8921 19.49 15.2002 20.0325 15.5194C20.575 15.8385 22.0985 16.7399 23.4181 17.5226C24.7377 18.3053 26.1988 19.1677 26.665 19.4391C27.1312 19.7104 27.5118 19.9477 27.5109 19.9663C27.5099 19.9849 27.2887 20.1365 27.0193 20.3032L26.5294 20.6062L26.2777 20.4914C26.1393 20.4283 25.7561 20.2595 25.4262 20.1165C25.0963 19.9735 24.533 19.7284 24.1744 19.5718C23.8158 19.4152 23.2995 19.1929 23.027 19.0777C22.7544 18.9625 22.4024 18.809 22.2446 18.7365C22.0868 18.664 21.723 18.504 21.4361 18.381C20.0922 17.8048 19.6923 17.6312 19.402 17.4978C19.2298 17.4187 18.9834 17.3122 18.8543 17.2609C18.7252 17.2097 18.4553 17.0923 18.2545 17C18.0537 16.9077 17.7838 16.7902 17.6547 16.7391C17.5256 16.6878 17.2791 16.5812 17.107 16.5022C16.8059 16.3638 16.1783 16.0917 15.0728 15.62C14.786 15.4977 14.4158 15.3355 14.2501 15.2597C14.0845 15.184 13.8028 15.0608 13.6242 14.9861C13.4456 14.9114 13.1704 14.7915 13.0126 14.7198C12.8548 14.648 12.5145 14.4999 12.2563 14.3905C11.7234 14.1649 10.5706 13.6629 10.2365 13.5111C10.1139 13.4553 9.80457 13.3233 9.5492 13.2177C9.29389 13.1121 9.04744 13.0062 9.00154 12.9824C8.95569 12.9586 8.83604 12.9041 8.73564 12.8614C8.63523 12.8186 8.2597 12.6547 7.90111 12.497C7.54252 12.3394 7.10298 12.1493 6.92439 12.0746C6.74581 11.9999 6.47589 11.8825 6.32458 11.8137C6.17327 11.7449 5.89693 11.6249 5.71047 11.5469C5.524 11.469 5.26582 11.3577 5.13673 11.2997C5.00764 11.2417 4.78466 11.1416 4.64123 11.0772C4.33459 10.9395 4.14572 10.8778 4.14572 10.9152C4.14572 10.9299 4.29829 11.2046 4.48475 11.5255C4.67122 11.8465 4.82378 12.1169 4.82378 12.1265C4.82378 12.1361 4.9487 12.362 5.10137 12.6285C5.25403 12.8949 5.61022 13.5238 5.89286 14.026C6.17551 14.5282 6.64493 15.3617 6.93613 15.8782C7.22728 16.3948 7.54544 16.9641 7.64319 17.1435C7.74093 17.3228 7.84911 17.4696 7.88363 17.4696C7.91816 17.4696 8.08288 17.5264 8.24973 17.5959C8.41659 17.6655 8.7878 17.8093 9.07467 17.9157C9.96793 18.2468 10.6845 18.5194 10.8629 18.596C10.9571 18.6365 11.0686 18.6696 11.1106 18.6696C11.1526 18.6696 11.1871 18.6926 11.1871 18.7207C11.1871 18.7489 10.9758 19.258 10.7176 19.8522C10.4595 20.4463 10.2482 20.95 10.2482 20.9715C10.2482 20.9929 10.301 21.0246 10.3656 21.0419C10.7161 21.1358 10.9215 21.1943 11.1088 21.2536C11.2236 21.29 11.4231 21.3484 11.5522 21.3835C11.6813 21.4185 11.8925 21.4788 12.0216 21.5176C12.1507 21.5564 12.4616 21.6478 12.7125 21.7209C12.9634 21.7939 13.3624 21.9116 13.5992 21.9825C13.836 22.0533 14.4991 22.2502 15.0728 22.4199C15.6466 22.5896 16.3625 22.8016 16.6637 22.8911C16.9649 22.9805 17.3404 23.0909 17.4982 23.1365C17.8254 23.2309 18.0596 23.301 18.3588 23.3941C18.4736 23.4298 18.6731 23.4879 18.8022 23.5233C18.9312 23.5586 19.1307 23.6173 19.2455 23.6537C19.3602 23.6901 19.5597 23.7485 19.6888 23.7835C19.8179 23.8185 20.0292 23.8789 20.1583 23.9177C20.2874 23.9564 20.6042 24.0498 20.8624 24.1251C21.1206 24.2005 21.3905 24.2801 21.4622 24.302C21.5339 24.324 21.7334 24.3849 21.9056 24.4375C22.0777 24.49 22.2245 24.5364 22.2318 24.5407C22.2391 24.545 22.2119 24.6169 22.1714 24.7005C22.1309 24.784 22.0103 25.0402 21.9034 25.2698C21.7965 25.4994 21.7023 25.6952 21.694 25.7049C21.6857 25.7146 21.5539 25.6985 21.4011 25.6691C21.0659 25.6047 20.2856 25.4804 19.7149 25.4007C19.4854 25.3686 19.0981 25.3094 18.8543 25.2692C18.6105 25.2289 18.2584 25.1732 18.0719 25.1454C17.5822 25.0724 16.7068 24.9348 16.1942 24.8504C15.9504 24.8102 15.5749 24.7516 15.3597 24.7201C15.1446 24.6887 14.769 24.6306 14.5252 24.591C14.2813 24.5514 13.8941 24.4919 13.6646 24.4587C13.4351 24.4256 13.0595 24.3676 12.83 24.3299C12.6006 24.2922 12.225 24.2345 11.9955 24.2018C11.766 24.169 11.3787 24.1099 11.1349 24.0703C10.8911 24.0307 10.5155 23.9724 10.3004 23.9407C10.0852 23.9091 9.68622 23.847 9.41369 23.8028C8.30048 23.6224 8.01273 23.5771 7.61424 23.5196C7.38474 23.4864 7.0092 23.4282 6.77971 23.3901C6.55021 23.352 6.16294 23.2932 5.9191 23.2595C5.67526 23.2257 5.29972 23.1672 5.08457 23.1296C4.86942 23.092 4.50562 23.0344 4.27612 23.0017C4.04662 22.969 3.64761 22.9079 3.38943 22.8659C3.13125 22.8238 2.77918 22.7675 2.60706 22.7407C2.43494 22.7139 2.0594 22.6539 1.77253 22.6073C-0.182355 22.2895 -0.0457009 22.3035 0.0425506 22.4295C0.0815649 22.4852 0.313408 22.748 0.557821 23.0134C0.802181 23.2787 1.14027 23.6521 1.30911 23.8432C1.5846 24.1549 2.22417 24.8617 2.81251 25.5046C2.9307 25.6337 3.34718 26.0916 3.738 26.522C4.88747 27.7879 4.95225 27.8525 5.07372 27.8525C5.136 27.8525 5.4514 27.9122 5.77467 27.9851C6.09795 28.0581 6.45633 28.1384 6.57108 28.1637C6.79864 28.2137 7.29899 28.3289 7.81009 28.4489C7.98925 28.491 8.52309 28.61 8.99643 28.7134C9.46976 28.8167 10.0096 28.9372 10.1961 28.981C10.3825 29.0249 10.629 29.0805 10.7437 29.1047C10.8585 29.1289 11.1049 29.1836 11.2914 29.2264C11.4778 29.2691 11.7712 29.3325 11.9434 29.3672C12.1155 29.4019 12.3854 29.4613 12.5432 29.4992C12.9553 29.5982 13.5267 29.7315 13.7689 29.7852C13.8836 29.8106 14.2007 29.8808 14.4734 29.9411C14.852 30.0249 15.0249 30.0928 15.2037 30.2278C15.4921 30.4457 16.3755 31.1012 16.7135 31.3482C16.8509 31.4487 17.1013 31.6347 17.2699 31.7617C17.7925 32.1552 21.015 34.5551 23.1052 36.1075C23.6789 36.5336 24.2305 36.9472 24.3309 37.0266C24.9163 37.4897 25.5118 37.8618 26.3912 38.3139C26.9362 38.594 27.4063 38.8421 27.4357 38.8652C27.5083 38.922 27.5812 39.1437 28.2239 41.2616C28.3241 41.5916 28.4377 41.9555 28.4764 42.0703C28.5151 42.1851 28.6044 42.4668 28.6747 42.6964C28.7451 42.926 28.898 43.419 29.0144 43.7921C29.1309 44.1651 29.3115 44.7521 29.4159 45.0965C29.7423 46.1733 29.7209 46.1329 30.03 46.2585C30.3506 46.3888 31.1003 46.5955 31.5809 46.6861C32.0667 46.7777 33.6297 46.8118 34.4235 46.7482L35.1016 46.6938L35.4153 47.0169C35.5878 47.1946 35.9751 47.6177 36.2759 47.957C37.2358 49.04 37.4792 49.3123 37.9165 49.7923C38.3108 50.2249 38.7669 50.7337 39.3478 51.3888L39.5779 51.6483L39.4744 51.7899C39.4175 51.8677 39.1874 52.2015 38.9631 52.5315C38.7388 52.8615 38.5249 53.167 38.4876 53.2104C38.4188 53.2906 38.4595 53.3545 39.0818 54.1442C39.1589 54.2421 39.269 54.3867 39.3264 54.4656C39.4242 54.6001 40.2694 55.7023 40.4533 55.9353C40.558 56.0678 40.5786 56.0337 40.6845 55.5538C40.7316 55.3407 40.789 55.0841 40.8121 54.9837C41.0663 53.8805 41.1388 53.599 41.1743 53.5759C41.2362 53.5357 41.9071 53.0094 42.8846 52.2343C43.3622 51.8556 43.778 51.5606 43.8085 51.5786C43.8391 51.5966 44.1575 51.8117 44.5161 52.0565C45.9461 53.0326 46.3634 53.3097 46.3795 53.2936C46.3962 53.2769 46.3618 53.144 46.1076 52.2445C46.0347 51.9862 45.9131 51.5519 45.8374 51.2793C45.7617 51.0066 45.666 50.6662 45.6247 50.5227C45.5833 50.3792 45.533 50.1914 45.5129 50.1053L45.4765 49.9488L43.2311 49.9696L40.9857 49.9904L40.3463 48.9261C39.9946 48.3407 39.4335 47.4099 39.0994 46.8575C38.023 45.0783 35.4691 40.838 35.3881 40.6954C35.3448 40.6194 35.2216 40.4132 35.1142 40.2373C34.8936 39.8757 34.8868 39.8528 35.0015 39.8528C35.0469 39.8528 35.2523 39.796 35.4579 39.7266C35.6635 39.6572 36.1486 39.5019 36.5359 39.3814C36.9232 39.261 37.4043 39.1084 37.6051 39.0423C37.806 38.9762 38.2871 38.8242 38.6744 38.7046C39.4628 38.461 40.0258 38.2816 40.6027 38.0898C40.817 38.0186 41.0772 37.9603 41.1808 37.9603C41.3483 37.9603 42.0695 38.1068 42.8992 38.3094C43.057 38.3479 43.3269 38.4083 43.499 38.4437C43.6711 38.479 43.9365 38.5416 44.0887 38.5827L44.3653 38.6574L44.3332 38.9029C44.3021 39.1402 44.2008 39.7101 44.0957 40.2389C44.0677 40.3795 44.0529 40.5026 44.0627 40.5124C44.0786 40.5283 46.0434 39.1645 46.2373 39.0029C46.2803 38.967 46.4001 38.8857 46.5033 38.8219L46.691 38.7062L46.725 38.1969C46.7437 37.9168 46.7731 37.5349 46.7903 37.3484L46.8215 37.0093L46.3941 36.7005C46.1589 36.5308 45.9394 36.366 45.9063 36.3344C45.8732 36.3029 45.6401 36.1254 45.3883 35.94C44.8907 35.5738 44.9146 35.6148 44.7502 34.844C44.568 33.9894 44.5859 34.0249 44.2618 33.8737C44.1005 33.7984 43.8863 33.7011 43.7859 33.6574C43.356 33.4703 43.1661 33.3855 42.8338 33.2324C42.6401 33.1431 42.4714 33.07 42.4588 33.07C42.4463 33.07 42.2337 32.9761 41.9864 32.8613C41.7392 32.7465 41.5283 32.6526 41.5177 32.6526C41.5072 32.6526 41.3267 32.5738 41.1166 32.4775C40.9065 32.3811 40.5351 32.2139 40.2913 32.1059C40.0475 31.9978 39.6996 31.8419 39.5183 31.7593C39.337 31.6767 39.18 31.6091 39.1693 31.6091C39.1587 31.6091 38.9477 31.5152 38.7005 31.4004C38.4532 31.2856 38.2423 31.1917 38.2318 31.1917C38.2212 31.1917 38.0407 31.1123 37.8306 31.0152C37.6205 30.9181 37.3548 30.7992 37.24 30.7508L37.0314 30.6629L37.1618 30.5575C37.2335 30.4994 37.5504 30.2122 37.8659 29.919C38.1815 29.6258 38.6979 29.1531 39.0134 28.8685C39.329 28.5839 39.5989 28.3349 39.6133 28.3153C39.6277 28.2957 39.936 28.0133 40.2983 27.6878C40.9502 27.1023 42.6402 25.5598 42.6906 25.5044C42.7049 25.4886 42.9748 25.2438 43.2904 24.9603C43.6059 24.6768 43.8993 24.412 43.9424 24.3718C44.0119 24.3068 44.0117 24.2935 43.9405 24.2531C43.8965 24.2281 42.7347 23.3942 41.3587 22.4002C39.9827 21.4061 38.7197 20.4946 38.552 20.3747C38.3842 20.2547 38.053 20.0157 37.8159 19.8435C37.5789 19.6714 37.1559 19.3661 36.876 19.1653C36.5961 18.9644 36.2232 18.694 36.0473 18.5644C35.8714 18.4348 35.528 18.1886 35.2841 18.0173C35.0403 17.846 34.8056 17.6777 34.7625 17.6433C34.6029 17.5156 34.2102 17.2308 34.068 17.1395C33.9872 17.0876 33.8816 17.0131 33.8333 16.9738C33.6255 16.8049 33.2547 16.5366 33.1562 16.4839C33.0975 16.4525 33.0183 16.3962 32.9802 16.3588C32.9421 16.3214 32.6879 16.1332 32.4154 15.9407C32.1429 15.7481 31.7087 15.4376 31.4505 15.2507C31.1923 15.0639 30.7698 14.7586 30.5116 14.5724C30.2535 14.3863 29.831 14.081 29.5728 13.8942C29.3146 13.7073 28.9978 13.4802 28.8687 13.3896C28.7396 13.299 28.4697 13.1039 28.2688 12.9562C28.068 12.8085 27.1409 12.1396 26.2086 11.4698C25.2763 10.8 24.4078 10.1747 24.2788 10.0801C24.1497 9.98552 23.2578 9.34272 22.2967 8.65165C21.3357 7.96054 20.5142 7.36647 20.4712 7.3314C20.4282 7.29639 20.1935 7.12834 19.9496 6.95798C19.7058 6.78763 19.4946 6.63387 19.4802 6.61629C19.4659 6.59871 19.2312 6.42715 18.9586 6.2351C18.6861 6.04304 18.2519 5.73296 17.9937 5.54607C17.7355 5.35923 17.313 5.054 17.0549 4.86779C16.7967 4.68162 16.3742 4.37671 16.116 4.19018C15.4031 3.67516 14.6937 3.16488 14.4537 2.99448C14.3352 2.91032 14.074 2.72077 13.8732 2.57316C13.6724 2.42556 12.9565 1.90918 12.2824 1.42561C11.6082 0.942053 10.8883 0.421394 10.6824 0.268572C10.2794 -0.0305499 10.2161 -0.0595072 10.275 0.0820969Z" fill="#059669"/>
<path fill-rule="evenodd" clip-rule="evenodd" d="M28.5444 2.71955C28.4504 2.73596 28.0397 2.7909 27.6317 2.8417C26.6837 2.95962 26.0449 3.06267 25.4383 3.19559C25.1726 3.25383 24.8018 3.33502 24.6143 3.37611C24.4267 3.41714 24.133 3.4906 23.9615 3.53935C23.7901 3.5881 23.5223 3.66341 23.3664 3.70673C22.8423 3.8522 21.7434 4.23013 21.6846 4.28509C21.644 4.32313 23.2565 5.7635 25.7551 7.92094C26.4595 8.52913 27.4382 9.38278 27.9301 9.81797C28.4219 10.2532 28.9985 10.7564 29.2112 10.9362L29.5981 11.2631L31.0025 11.2386C32.7154 11.2087 33.8746 11.303 35.4926 11.6037C36.7096 11.83 38.3159 12.3218 39.4451 12.814C40.6317 13.3312 41.9613 14.0863 42.9433 14.8006C43.5949 15.2746 44.9131 16.4469 45.5013 17.0755C46.1444 17.7626 47.3166 19.2459 47.4991 19.6035C47.5225 19.6494 47.6006 19.7739 47.6727 19.8801C48.2885 20.7886 49.1347 22.473 49.477 23.4717C50.0368 25.1051 50.1939 25.7175 50.5139 27.5138C50.7059 28.5914 50.8258 31.0139 50.7338 31.9571C50.5541 33.7989 50.2878 35.0301 49.7285 36.6056C49.3931 37.5501 48.5819 39.1744 48.0159 40.0346C46.9256 41.692 45.6827 43.1371 44.1569 44.5216C43.6658 44.9672 43.5143 45.0941 42.4727 45.9321C42.1802 46.1674 41.949 46.3894 41.9589 46.4253C41.9688 46.4612 42.287 46.9619 42.6662 47.5379C43.0453 48.1138 43.3832 48.6291 43.417 48.683C43.4928 48.8035 43.7686 49.213 43.7941 49.2429C43.8043 49.2549 43.907 49.1968 44.0224 49.1138C44.1377 49.0307 44.4576 48.8037 44.7332 48.6092C46.3568 47.4637 48.0258 46.0019 49.4024 44.5197C50.0917 43.7775 50.9187 42.7937 51.2777 42.2888C51.3609 42.1717 51.4751 42.0183 51.5316 41.9479C51.71 41.7252 52.473 40.5734 52.7836 40.058C54.5834 37.0707 55.7938 33.4815 56.0785 30.287C56.1009 30.0361 56.1397 29.6381 56.1649 29.4027C56.2474 28.6294 56.1408 25.7112 55.9945 24.7367C55.6959 22.7493 55.2732 21.0598 54.6337 19.2984C54.4136 18.6921 53.7599 17.147 53.6169 16.8949C53.5897 16.847 53.4743 16.609 53.3604 16.3661C52.8452 15.2676 51.7419 13.5658 50.6391 12.1686C48.5244 9.48929 46.2643 7.54318 43.2171 5.7777C41.7476 4.92629 39.423 3.98224 37.642 3.5135C36.8625 3.30838 35.4558 3.00912 34.9211 2.93473C33.6605 2.75922 33.7013 2.76321 32.012 2.65007C31.4569 2.61284 28.8567 2.66495 28.5444 2.71955ZM5.66696 31.0366C5.69211 31.2464 5.75809 31.6463 5.81361 31.9252C5.86919 32.204 5.95268 32.6351 5.99925 32.8831C6.26298 34.2882 6.87666 36.2786 7.52071 37.8177C7.93954 38.8185 8.77511 40.4281 9.20872 41.0692C9.28062 41.1755 9.35908 41.2999 9.38307 41.3458C9.55925 41.6827 10.6268 43.0993 11.2495 43.8226C11.7982 44.4598 13.3389 46.0285 13.5963 46.2119C13.6732 46.2667 14.0038 46.5363 14.331 46.8111C16.9089 48.9759 20.3191 50.8409 23.4437 51.7947C24.1045 51.9965 24.1281 52.003 24.7499 52.1573C27.7506 52.9015 30.926 53.0291 34.4038 52.5453C35.2424 52.4286 36.8232 52.1105 36.821 52.0589C36.8196 52.0269 36.0252 51.2234 35.0868 50.305C34.7056 49.9319 34.2834 49.5178 34.1486 49.3847L33.9035 49.1427L32.7641 49.2022C31.6835 49.2586 30.0844 49.2251 29.4392 49.1325C29.2805 49.1097 28.9689 49.0685 28.7469 49.041C27.7708 48.9198 26.199 48.5546 25.2994 48.2399C24.4649 47.948 24.3034 47.8833 23.4025 47.4792C20.9252 46.368 18.57 44.5476 16.7504 42.3375C16.4307 41.9491 15.8055 41.1 15.5946 40.7677C13.8901 38.0817 12.8904 35.3795 12.4712 32.3252L12.4096 31.8763L12.062 31.7964C11.8708 31.7525 11.4543 31.671 11.1364 31.6153C10.8186 31.5596 10.3893 31.483 10.1826 31.4449C9.97593 31.4068 9.5858 31.3388 9.31569 31.2936C8.71319 31.1931 7.83458 31.0358 7.40805 30.9523C7.23306 30.918 6.93394 30.8652 6.74333 30.8348C6.55273 30.8044 6.26248 30.7499 6.0983 30.7135C5.60957 30.6053 5.61491 30.6013 5.66696 31.0366Z" fill="url(#paint2_linear_214_646)"/>
<defs>
<linearGradient id="paint0_linear_214_646" x1="62.6797" y1="74.7451" x2="301.555" y2="74.7451" gradientUnits="userSpaceOnUse">
<stop stop-color="#FCD34D"/>
<stop offset="1" stop-color="#F9C622"/>
</linearGradient>
<linearGradient id="paint1_linear_214_646" x1="105.131" y1="137.118" x2="116.831" y2="137.118" gradientUnits="userSpaceOnUse">
<stop stop-color="#FCD34D"/>
<stop offset="1" stop-color="#F9C622"/>
</linearGradient>
<linearGradient id="paint2_linear_214_646" x1="6.13269" y1="29.272" x2="55.4545" y2="27.1628" gradientUnits="userSpaceOnUse">
<stop stop-color="#FCD34D"/>
<stop offset="1" stop-color="#F9C622"/>
</linearGradient>
</defs>
</svg>
